<svg width="272" height="240" viewBox="0 0 272 240" fill="none" xmlns="http://www.w3.org/2000/svg">
<path d="M91.3216 28.4H94.7596C95.7916 28.4 96.6976 28.58 97.4776 28.94C98.2576 29.3 98.8696 29.786 99.3136 30.398C99.7576 31.01 100.082 31.676 100.286 32.396C100.502 33.116 100.61 33.884 100.61 34.7C100.61 35.48 100.508 36.224 100.304 36.932C100.112 37.628 99.7996 38.294 99.3676 38.93C98.9476 39.554 98.3356 40.058 97.5316 40.442C96.7276 40.814 95.7796 41 94.6876 41H91.3216V28.4ZM94.8856 39.542C95.6296 39.542 96.2776 39.404 96.8296 39.128C97.3936 38.84 97.8256 38.456 98.1256 37.976C98.4256 37.484 98.6416 36.968 98.7736 36.428C98.9176 35.888 98.9896 35.312 98.9896 34.7C98.9896 33.836 98.8636 33.05 98.6116 32.342C98.3596 31.634 97.9276 31.04 97.3156 30.56C96.7036 30.08 95.9596 29.84 95.0836 29.84H92.8876V39.542H94.8856ZM108.595 41V40.154C107.839 40.862 106.969 41.216 105.985 41.216C105.013 41.216 104.233 40.952 103.645 40.424C103.069 39.884 102.781 39.116 102.781 38.12C102.781 37.124 103.111 36.368 103.771 35.852C104.431 35.336 105.247 35.078 106.219 35.078C107.107 35.078 107.899 35.276 108.595 35.672V35.024C108.595 34.256 108.421 33.722 108.073 33.422C107.737 33.11 107.245 32.954 106.597 32.954C105.673 32.954 104.779 33.26 103.915 33.872L103.465 32.558C104.449 31.91 105.559 31.586 106.795 31.586C108.979 31.586 110.071 32.69 110.071 34.898V41H108.595ZM106.219 39.83C107.119 39.83 107.911 39.428 108.595 38.624V37.04C107.935 36.632 107.215 36.428 106.435 36.428C105.799 36.428 105.277 36.572 104.869 36.86C104.461 37.148 104.257 37.568 104.257 38.12C104.257 38.636 104.425 39.05 104.761 39.362C105.109 39.674 105.595 39.83 106.219 39.83ZM115.28 41.216C113.984 41.216 113.336 40.484 113.336 39.02V33.17H111.842V31.802H113.336V28.76L114.902 28.004V31.802H117.17V33.17H114.902V38.498C114.902 38.906 114.968 39.218 115.1 39.434C115.232 39.65 115.484 39.758 115.856 39.758C116.264 39.758 116.72 39.596 117.224 39.272L117.044 40.802C116.516 41.078 115.928 41.216 115.28 41.216ZM124.626 41V40.154C123.87 40.862 123 41.216 122.016 41.216C121.044 41.216 120.264 40.952 119.676 40.424C119.1 39.884 118.812 39.116 118.812 38.12C118.812 37.124 119.142 36.368 119.802 35.852C120.462 35.336 121.278 35.078 122.25 35.078C123.138 35.078 123.93 35.276 124.626 35.672V35.024C124.626 34.256 124.452 33.722 124.104 33.422C123.768 33.11 123.276 32.954 122.628 32.954C121.704 32.954 120.81 33.26 119.946 33.872L119.496 32.558C120.48 31.91 121.59 31.586 122.826 31.586C125.01 31.586 126.102 32.69 126.102 34.898V41H124.626ZM122.25 39.83C123.15 39.83 123.942 39.428 124.626 38.624V37.04C123.966 36.632 123.246 36.428 122.466 36.428C121.83 36.428 121.308 36.572 120.9 36.86C120.492 37.148 120.288 37.568 120.288 38.12C120.288 38.636 120.456 39.05 120.792 39.362C121.14 39.674 121.626 39.83 122.25 39.83ZM131.545 41.216C130.885 41.216 130.255 41.078 129.655 40.802C129.067 40.514 128.587 40.136 128.215 39.668L129.331 38.714C130.015 39.446 130.765 39.812 131.581 39.812C132.097 39.812 132.511 39.716 132.823 39.524C133.135 39.32 133.291 39.026 133.291 38.642C133.291 38.354 133.177 38.096 132.949 37.868C132.721 37.628 132.487 37.454 132.247 37.346C132.007 37.226 131.653 37.076 131.185 36.896C130.249 36.548 129.541 36.158 129.061 35.726C128.581 35.294 128.341 34.724 128.341 34.016C128.341 33.272 128.629 32.684 129.205 32.252C129.793 31.808 130.537 31.586 131.437 31.586C132.721 31.586 133.753 32.048 134.533 32.972L133.453 33.872C132.889 33.284 132.211 32.99 131.419 32.99C130.951 32.99 130.579 33.08 130.303 33.26C130.027 33.44 129.889 33.692 129.889 34.016C129.889 34.196 129.931 34.364 130.015 34.52C130.111 34.664 130.273 34.802 130.501 34.934C130.741 35.066 130.927 35.168 131.059 35.24C131.203 35.3 131.461 35.402 131.833 35.546C132.805 35.894 133.543 36.29 134.047 36.734C134.563 37.178 134.821 37.802 134.821 38.606C134.821 39.422 134.527 40.064 133.939 40.532C133.351 40.988 132.553 41.216 131.545 41.216ZM140.811 41.216C139.563 41.216 138.567 40.772 137.823 39.884C137.091 38.984 136.725 37.82 136.725 36.392C136.725 34.892 137.097 33.716 137.841 32.864C138.585 32.012 139.575 31.586 140.811 31.586C141.915 31.586 142.821 31.958 143.529 32.702C144.249 33.434 144.609 34.52 144.609 35.96C144.609 36.296 144.591 36.644 144.555 37.004H138.327C138.387 37.844 138.645 38.522 139.101 39.038C139.569 39.542 140.151 39.794 140.847 39.794C141.615 39.794 142.275 39.518 142.827 38.966L143.781 40.028C142.989 40.82 141.999 41.216 140.811 41.216ZM138.309 35.672H143.025C143.013 34.724 142.785 34.04 142.341 33.62C141.909 33.188 141.399 32.972 140.811 32.972C140.103 32.972 139.521 33.2 139.065 33.656C138.609 34.1 138.357 34.772 138.309 35.672ZM149.258 41.216C147.962 41.216 147.314 40.484 147.314 39.02V33.17H145.82V31.802H147.314V28.76L148.88 28.004V31.802H151.148V33.17H148.88V38.498C148.88 38.906 148.946 39.218 149.078 39.434C149.21 39.65 149.462 39.758 149.834 39.758C150.242 39.758 150.698 39.596 151.202 39.272L151.022 40.802C150.494 41.078 149.906 41.216 149.258 41.216ZM155.613 43.34C154.149 41.42 153.417 38.936 153.417 35.888C153.417 32.66 154.215 30.092 155.811 28.184H157.323C156.807 28.808 156.285 29.816 155.757 31.208C155.229 32.588 154.965 34.148 154.965 35.888C154.965 37.1 155.115 38.282 155.415 39.434C155.727 40.574 156.015 41.402 156.279 41.918C156.555 42.446 156.837 42.92 157.125 43.34H155.613ZM161.009 41V30.956H158.903V29.894C160.259 29.894 161.105 29.396 161.441 28.4H162.575V41H161.009ZM165.959 43.34C166.247 42.92 166.523 42.446 166.787 41.918C167.063 41.402 167.351 40.574 167.651 39.434C167.963 38.282 168.119 37.1 168.119 35.888C168.119 34.148 167.855 32.588 167.327 31.208C166.799 29.816 166.277 28.808 165.761 28.184H167.273C168.869 30.092 169.667 32.66 169.667 35.888C169.667 38.936 168.935 41.42 167.471 43.34H165.959ZM173.965 40.874C173.725 41.114 173.431 41.234 173.083 41.234C172.735 41.234 172.441 41.114 172.201 40.874C171.961 40.622 171.841 40.334 171.841 40.01C171.841 39.674 171.961 39.386 172.201 39.146C172.441 38.894 172.735 38.768 173.083 38.768C173.431 38.768 173.725 38.894 173.965 39.146C174.217 39.398 174.343 39.686 174.343 40.01C174.343 40.334 174.217 40.622 173.965 40.874ZM179.564 41.216C178.388 41.216 177.458 40.796 176.774 39.956C176.09 39.104 175.748 37.922 175.748 36.41C175.748 34.898 176.09 33.716 176.774 32.864C177.47 32.012 178.424 31.586 179.636 31.586C181.268 31.586 182.342 32.3 182.858 33.728L181.382 34.268C181.07 33.452 180.494 33.044 179.654 33.044C178.886 33.044 178.31 33.338 177.926 33.926C177.542 34.514 177.35 35.342 177.35 36.41C177.35 37.466 177.542 38.288 177.926 38.876C178.31 39.452 178.868 39.74 179.6 39.74C180.56 39.74 181.184 39.284 181.472 38.372L182.93 38.858C182.702 39.614 182.294 40.196 181.706 40.604C181.13 41.012 180.416 41.216 179.564 41.216ZM188.006 41.216C187.346 41.216 186.716 41.078 186.116 40.802C185.528 40.514 185.048 40.136 184.676 39.668L185.792 38.714C186.476 39.446 187.226 39.812 188.042 39.812C188.558 39.812 188.972 39.716 189.284 39.524C189.596 39.32 189.752 39.026 189.752 38.642C189.752 38.354 189.638 38.096 189.41 37.868C189.182 37.628 188.948 37.454 188.708 37.346C188.468 37.226 188.114 37.076 187.646 36.896C186.71 36.548 186.002 36.158 185.522 35.726C185.042 35.294 184.802 34.724 184.802 34.016C184.802 33.272 185.09 32.684 185.666 32.252C186.254 31.808 186.998 31.586 187.898 31.586C189.182 31.586 190.214 32.048 190.994 32.972L189.914 33.872C189.35 33.284 188.672 32.99 187.88 32.99C187.412 32.99 187.04 33.08 186.764 33.26C186.488 33.44 186.35 33.692 186.35 34.016C186.35 34.196 186.392 34.364 186.476 34.52C186.572 34.664 186.734 34.802 186.962 34.934C187.202 35.066 187.388 35.168 187.52 35.24C187.664 35.3 187.922 35.402 188.294 35.546C189.266 35.894 190.004 36.29 190.508 36.734C191.024 37.178 191.282 37.802 191.282 38.606C191.282 39.422 190.988 40.064 190.4 40.532C189.812 40.988 189.014 41.216 188.006 41.216ZM196.191 41L192.825 31.802H194.409L196.587 37.94C196.743 38.396 196.839 38.696 196.875 38.84C196.911 38.696 197.007 38.396 197.163 37.94L199.305 31.802H200.871L197.505 41H196.191Z" fill="black"/>
<rect x="75" y="62" width="130" height="140" rx="25" fill="#2EC4B6"/>
<rect x="85" y="113" width="47" height="15" fill="white"/>
<rect x="148" y="113" width="47" height="15" fill="white"/>
<rect x="85" y="136" width="47" height="15" fill="white"/>
<rect x="148" y="136" width="47" height="15" fill="white"/>
<path d="M223.214 44.758L218.888 111.521L156.634 51.3183L223.214 44.758Z" fill="white"/>
</svg>
