<svg width="33" height="33" viewBox="0 0 33 33" fill="none" xmlns="http://www.w3.org/2000/svg">
<path d="M16.5 4.125C23.3062 4.125 28.875 9.69375 28.875 16.5C28.875 23.3062 23.3062 28.875 16.5 28.875C9.69375 28.875 4.125 23.3062 4.125 16.5C4.125 9.69375 9.69375 4.125 16.5 4.125ZM16.5 2.0625C8.55938 2.0625 2.0625 8.55938 2.0625 16.5C2.0625 24.4406 8.55938 30.9375 16.5 30.9375C24.4406 30.9375 30.9375 24.4406 30.9375 16.5C30.9375 8.55938 24.4406 2.0625 16.5 2.0625Z" fill="#C4C4C4"/>
<path d="M24.75 15.4688H17.5312V8.25H15.4688V15.4688H8.25V17.5312H15.4688V24.75H17.5312V17.5312H24.75V15.4688Z" fill="#C4C4C4"/>
</svg>
