<svg width="24" height="24" viewBox="0 0 24 24" fill="none" xmlns="http://www.w3.org/2000/svg">
<path d="M12 0C18.6276 0 24 5.3724 24 12C24 18.6276 18.6276 24 12 24C5.3724 24 0 18.6276 0 12C0 5.3724 5.3724 0 12 0ZM12 6C11.7825 6.00001 11.5724 6.07877 11.4085 6.22172C11.2446 6.36467 11.138 6.56214 11.1084 6.7776L11.1 6.9V11.1H6.9C6.67197 11.1001 6.45247 11.1867 6.28585 11.3424C6.11923 11.498 6.01791 11.7112 6.00237 11.9387C5.98683 12.1662 6.05822 12.3911 6.20212 12.568C6.34602 12.7448 6.5517 12.8605 6.7776 12.8916L6.9 12.9H11.1V17.1C11.1001 17.328 11.1867 17.5475 11.3424 17.7142C11.498 17.8808 11.7112 17.9821 11.9387 17.9976C12.1662 18.0132 12.3911 17.9418 12.568 17.7979C12.7448 17.654 12.8605 17.4483 12.8916 17.2224L12.9 17.1V12.9H17.1C17.328 12.8999 17.5475 12.8133 17.7142 12.6576C17.8808 12.502 17.9821 12.2888 17.9976 12.0613C18.0132 11.8338 17.9418 11.6089 17.7979 11.432C17.654 11.2552 17.4483 11.1395 17.2224 11.1084L17.1 11.1H12.9V6.9C12.9 6.66131 12.8052 6.43239 12.6364 6.2636C12.4676 6.09482 12.2387 6 12 6Z" fill="#C4C4C4"/>
</svg>
