<svg width="28" height="28" viewBox="0 0 28 28" fill="none" xmlns="http://www.w3.org/2000/svg">
<path d="M14 0C6.26875 0 0 6.26875 0 14C0 21.7313 6.26875 28 14 28C21.7313 28 28 21.7313 28 14C28 6.26875 21.7313 0 14 0ZM19.7656 11.0531L14.2031 18.7406C14.1801 18.7726 14.1498 18.7986 14.1148 18.8165C14.0797 18.8345 14.0409 18.8438 14.0016 18.8438C13.9622 18.8438 13.9234 18.8345 13.8883 18.8165C13.8533 18.7986 13.823 18.7726 13.8 18.7406L8.2375 11.0531C8.11875 10.8875 8.2375 10.6562 8.44063 10.6562H9.90625C10.225 10.6562 10.5281 10.8094 10.7156 11.0688L14 15.6125L17.2875 11.0688C17.475 10.8094 17.775 10.6562 18.0969 10.6562H19.5625C19.7656 10.6562 19.8844 10.8875 19.7656 11.0531Z" fill="black"/>
</svg>
