<svg width="32" height="32" viewBox="0 0 32 32" fill="none" xmlns="http://www.w3.org/2000/svg">
<path d="M14.4012 3.2002C13.5525 3.2002 12.7385 3.53734 12.1384 4.13745C11.5383 4.73757 11.2012 5.5515 11.2012 6.4002V19.2002C11.2012 20.0489 11.5383 20.8628 12.1384 21.4629C12.7385 22.0631 13.5525 22.4002 14.4012 22.4002H24.0012C24.8499 22.4002 25.6638 22.0631 26.2639 21.4629C26.864 20.8628 27.2012 20.0489 27.2012 19.2002V10.2626C27.201 9.41397 26.8637 8.60017 26.2636 8.0002L22.4012 4.1378C21.8012 3.53764 20.9874 3.20038 20.1388 3.2002H14.4012Z" fill="#2EC4B6"/>
<path d="M4.80078 12.8001C4.80078 11.9514 5.13792 11.1375 5.73804 10.5374C6.33816 9.93724 7.15209 9.6001 8.00078 9.6001V25.6001H20.8008C20.8008 26.4488 20.4636 27.2627 19.8635 27.8628C19.2634 28.463 18.4495 28.8001 17.6008 28.8001H8.00078C7.15209 28.8001 6.33816 28.463 5.73804 27.8628C5.13792 27.2627 4.80078 26.4488 4.80078 25.6001V12.8001Z" fill="#2EC4B6"/>
</svg>
