<svg width="24" height="18" viewBox="0 0 24 18" fill="none" xmlns="http://www.w3.org/2000/svg">
<path fill-rule="evenodd" clip-rule="evenodd" d="M20.9738 4.49759L11.7836 10.1244L2.55401 4.49759V2.24879L11.754 7.8756L20.9738 2.24879V4.49759ZM20.9738 0H2.55401C1.9431 -5.4542e-06 1.35707 0.236612 0.924166 0.658067C0.491264 1.07952 0.246751 1.65149 0.244141 2.24879L0.244141 15.7609C0.246751 16.3582 0.491264 16.9301 0.924166 17.3516C1.35707 17.773 1.9431 18.0097 2.55401 18.0097H20.9738C21.5838 18.0097 22.1688 17.7727 22.6001 17.351C23.0314 16.9293 23.2738 16.3573 23.2738 15.7609V2.24879C23.2738 1.65238 23.0314 1.08039 22.6001 0.658656C22.1688 0.236926 21.5838 0 20.9738 0V0Z" fill="#DFDFDF"/>
</svg>
