<svg width="23" height="21" viewBox="0 0 23 21" fill="none" xmlns="http://www.w3.org/2000/svg">
<path d="M15.9541 21H6.05374C5.86065 21 5.67096 20.9448 5.50374 20.84C5.33652 20.7352 5.19766 20.5845 5.10111 20.403L0.150944 11.097C0.0546103 10.9154 0.00390625 10.7095 0.00390625 10.5C0.00390625 10.2905 0.0546103 10.0846 0.150944 9.903L5.10111 0.596998C5.19766 0.415492 5.33652 0.264767 5.50374 0.159972C5.67096 0.0551777 5.86065 5.32429e-06 6.05374 0H15.9541C16.1472 5.32429e-06 16.3369 0.0551777 16.5041 0.159972C16.6713 0.264767 16.8102 0.415492 16.9067 0.596998L21.8569 9.903C21.9532 10.0846 22.0039 10.2905 22.0039 10.5C22.0039 10.7095 21.9532 10.9154 21.8569 11.097L16.9067 20.403C16.8102 20.5845 16.6713 20.7352 16.5041 20.84C16.3369 20.9448 16.1472 21 15.9541 21Z" fill="#008000"/>
</svg>
