<svg width="18" height="10" viewBox="0 0 18 10" fill="none" xmlns="http://www.w3.org/2000/svg">
<path d="M8.29097 9.71188C8.36989 9.8007 8.47523 9.87332 8.5979 9.92349C8.72058 9.97366 8.85692 9.99987 8.99518 9.99987C9.13345 9.99987 9.26949 9.97366 9.39159 9.92349C9.51369 9.87332 9.61819 9.8007 9.69609 9.71188L17.3385 1.04592C17.4269 0.945961 17.4785 0.828887 17.4875 0.707413C17.4965 0.585939 17.4627 0.464711 17.3896 0.3569C17.3166 0.249089 17.2072 0.158819 17.0732 0.0958977C16.9393 0.032976 16.786 -0.00019088 16.6299 8.26368e-07L1.24544 8.26368e-07C1.08976 0.000502392 0.937384 0.0340958 0.804707 0.0971682C0.672031 0.160241 0.564072 0.250406 0.492439 0.357967C0.420807 0.465528 0.388213 0.586416 0.398161 0.70763C0.40811 0.828845 0.460224 0.945799 0.548901 1.04592L8.29097 9.71188Z" fill="black"/>
</svg>
