<svg width="18" height="13" viewBox="0 0 12 13" fill="none" xmlns="http://www.w3.org/2000/svg">
<path d="M6.49405 0.509128C6.439 0.401211 6.36535 0.312974 6.27942 0.252017C6.1935 0.19106 6.09788 0.15921 6.00081 0.15921C5.90374 0.15921 5.80813 0.19106 5.72221 0.252017C5.63628 0.312974 5.56262 0.401211 5.50758 0.509128L0.107153 11.0383C0.0446434 11.1597 0.00798512 11.302 0.00116348 11.4496C-0.00565815 11.5972 0.0176163 11.7445 0.0684586 11.8754C0.119301 12.0064 0.195765 12.1161 0.289545 12.1926C0.383326 12.269 0.490835 12.3093 0.600391 12.3091L11.4012 12.3091C11.5105 12.3085 11.6177 12.2677 11.7111 12.191C11.8045 12.1144 11.8806 12.0048 11.9313 11.8742C11.9821 11.7435 12.0054 11.5966 11.9989 11.4493C11.9924 11.302 11.9563 11.1599 11.8945 11.0383L6.49405 0.509128Z" fill="black"/>
</svg>
