<?xml version="1.0"?>
<svg xmlns="http://www.w3.org/2000/svg" xmlns:xlink="http://www.w3.org/1999/xlink" xmlns:svgjs="http://svgjs.com/svgjs" version="1.1" width="150" height="150" x="0" y="0" viewBox="0 0 511.998 511.998" style="enable-background:new 0 0 512 512" xml:space="preserve" class=""><g transform="matrix(0.65,0,0,0.65,89.59953603744506,89.59965035915374)"><g xmlns="http://www.w3.org/2000/svg"><g><g><g><path d="m486.797 222.605-81.565-81.565c-2.862-2.862-6.613-4.615-10.549-5.08v-18.754h21.608c7.233 0 13.695-4.318 16.464-11 2.768-6.683 1.252-14.306-3.862-19.42l-81.566-81.565c-3.366-3.367-7.841-5.221-12.602-5.221s-9.235 1.854-12.602 5.22l-81.565 81.565c-5.114 5.115-6.63 12.738-3.862 19.42 2.769 6.683 9.23 11 16.464 11h21.607v92.398c-8.583-1.507-17.41-2.298-26.419-2.298-8.269 0-16.383.672-24.299 1.946v-26.068h21.608c7.233 0 13.695-4.318 16.464-11 2.768-6.683 1.252-14.306-3.862-19.42l-35.045-35.045c-2.93-2.929-7.678-2.929-10.607 0s-2.929 7.678 0 10.606l35.045 35.045c1.159 1.159.881 2.423.611 3.074-.27.65-.966 1.741-2.605 1.741h-29.108c-4.143 0-7.5 3.358-7.5 7.5v36.771c-7.81 2.087-15.376 4.778-22.642 8.024l-54.439-54.439c-6.949-6.948-18.253-6.949-25.202 0l-2.144 2.144h-22.096c-1.64 0-2.337-1.091-2.606-1.741s-.548-1.914.612-3.073l81.565-81.565c1.1-1.101 2.888-1.099 3.987 0l21.743 21.743c2.93 2.929 7.678 2.929 10.607 0s2.929-7.678 0-10.606l-21.743-21.743c-6.949-6.949-18.253-6.947-25.202 0l-81.564 81.565c-5.115 5.115-6.632 12.737-3.864 19.42 2.769 6.683 9.231 11.001 16.465 11.001h7.096l-64.421 64.421c-5.115 5.115-6.632 12.738-3.864 19.42 2.769 6.683 9.23 11.001 16.464 11.001h21.608v197.396c0 9.826 7.994 17.82 17.82 17.82h84.274c3.265 0 6.443-.899 9.203-2.565 22.751 13.533 49.302 21.32 77.641 21.32 32.297 0 62.272-10.11 86.945-27.32 3.133 5.126 8.765 8.566 15.2 8.566h84.274c9.826 0 17.82-7.994 17.82-17.82v-222.398h21.608c7.233 0 13.695-4.318 16.464-11.001 2.768-6.682 1.252-14.306-3.862-19.42zm-409.567 255.638c-1.555 0-2.82-1.265-2.82-2.82v-204.897c0-4.142-3.357-7.5-7.5-7.5h-29.109c-1.64 0-2.336-1.091-2.605-1.741-.27-.65-.548-1.914.612-3.074l81.565-81.565c.719-.719 1.558-.826 1.993-.826.437 0 1.275.107 1.994.826l51 51c-45.603 26.354-76.357 75.655-76.357 132.005 0 47.868 22.198 90.642 56.832 118.591h-75.605zm171.118 18.755c-75.732 0-137.346-61.613-137.346-137.346s61.613-137.346 137.346-137.346 137.347 61.613 137.347 137.346-61.613 137.346-137.347 137.346zm228.453-260.712c-.27.65-.966 1.741-2.605 1.741h-29.108c-4.143 0-7.5 3.358-7.5 7.5v229.896c0 1.555-1.266 2.82-2.82 2.82h-84.274c-1.555 0-2.82-1.265-2.82-2.82 0-.113-.012-.223-.017-.335 32.456-27.96 53.039-69.338 53.039-115.436 0-14.701-2.109-28.916-6.013-42.375v-91.349c0-4.142-3.357-7.5-7.5-7.5s-7.5 3.358-7.5 7.5v56.602c-19.704-33.425-51.792-58.716-89.915-69.5v-103.324c0-4.142-3.357-7.5-7.5-7.5h-29.108c-1.64 0-2.336-1.091-2.605-1.741-.27-.65-.548-1.915.611-3.074l81.565-81.566c.719-.718 1.558-.826 1.994-.826s1.274.107 1.993.826l81.566 81.565c1.159 1.159.881 2.423.611 3.074-.27.65-.966 1.741-2.605 1.741h-29.108c-4.143 0-7.5 3.358-7.5 7.5v81.18c0 4.142 3.357 7.5 7.5 7.5s7.5-3.358 7.5-7.5v-39.182l81.508 81.507c1.159 1.161.881 2.425.611 3.076z" fill="#fdad35" data-original="#000000" style=""/><path d="m248.348 238.548c-25.72 0-50.291 7.966-71.058 23.038-3.353 2.433-4.098 7.123-1.665 10.475 2.433 3.353 7.124 4.098 10.476 1.665 18.188-13.2 39.713-20.178 62.247-20.178 58.506 0 106.104 47.598 106.104 106.103 0 58.506-47.598 106.104-106.104 106.104s-106.104-47.598-106.104-106.104c0-22.806 7.131-44.542 20.622-62.856 2.457-3.335 1.745-8.03-1.59-10.487-3.333-2.456-8.029-1.744-10.486 1.59-15.404 20.911-23.546 45.723-23.546 71.753 0 66.777 54.327 121.104 121.104 121.104s121.104-54.327 121.104-121.104c0-66.776-54.327-121.103-121.104-121.103z" fill="#fdad35" data-original="#000000" style=""/><path d="m248.348 443.379c46.168 0 83.728-37.56 83.728-83.728s-37.56-83.728-83.728-83.728-83.728 37.56-83.728 83.728 37.56 83.728 83.728 83.728zm0-152.455c37.896 0 68.728 30.831 68.728 68.728s-30.831 68.728-68.728 68.728-68.728-30.831-68.728-68.728 30.832-68.728 68.728-68.728z" fill="#fdad35" data-original="#000000" style=""/><path d="m240.848 403.147v5.929c0 4.142 3.357 7.5 7.5 7.5s7.5-3.358 7.5-7.5v-5.929c15.334-2.84 26.831-14.188 26.831-27.723 0-20.108-18.227-24.878-31.534-28.361-12.439-3.255-16.855-5.159-16.855-9.358 0-4.957 6.569-9.305 14.059-9.305s14.06 4.348 14.06 9.305c0 4.142 3.357 7.5 7.5 7.5s7.5-3.358 7.5-7.5c0-11.233-9.16-20.707-21.56-23.48v-6.062c0-4.142-3.357-7.5-7.5-7.5s-7.5 3.358-7.5 7.5v6.062c-12.399 2.773-21.559 12.247-21.559 23.48 0 16.526 16.217 20.77 28.058 23.869 15.255 3.993 20.332 6.554 20.332 13.85 0 7.271-8.853 13.414-19.331 13.414s-19.33-6.143-19.33-13.414c0-4.142-3.357-7.5-7.5-7.5s-7.5 3.358-7.5 7.5c-.001 13.535 11.496 24.882 26.829 27.723z" fill="#fdad35" data-original="#000000" style=""/></g></g></g></g></g></svg>
