<svg width="28" height="28" viewBox="0 0 28 28" fill="none" xmlns="http://www.w3.org/2000/svg">
<path d="M0 14C0 21.7312 6.26875 28 14 28C21.7313 28 28 21.7312 28 14C28 6.26875 21.7313 0 14 0C6.26875 0 0 6.26875 0 14ZM17.3438 8.4375V9.90313C17.3438 10.2219 17.1906 10.525 16.9312 10.7125L12.3875 14L16.9312 17.2875C17.1906 17.475 17.3438 17.775 17.3438 18.0969V19.5625C17.3438 19.7656 17.1125 19.8844 16.9469 19.7656L9.25937 14.2031C9.12187 14.1031 9.12187 13.9 9.25937 13.8L16.9469 8.2375C17.1125 8.11562 17.3438 8.23438 17.3438 8.4375Z" fill="black"/>
</svg>
