<svg width="18" height="21" viewBox="0 0 18 21" fill="none" xmlns="http://www.w3.org/2000/svg">
<g clip-path="url(#clip0)">
<path fill-rule="evenodd" clip-rule="evenodd" d="M12.0194 7.42362H5.46886V5.4721C5.51782 4.68345 5.88421 3.94227 6.49307 3.40023C7.10193 2.8582 7.90722 2.55629 8.74414 2.55629C9.58107 2.55629 10.3864 2.8582 10.9952 3.40023C11.6041 3.94227 11.9705 4.68345 12.0194 5.4721V7.42362ZM8.73852 16.057C8.34915 16.0569 7.96854 15.9478 7.64495 15.7434C7.32136 15.539 7.06934 15.2485 6.92086 14.9087C6.77237 14.5689 6.73409 14.1952 6.81087 13.8349C6.88766 13.4745 7.07605 13.1439 7.35217 12.8847C7.62828 12.6256 7.97969 12.4496 8.36185 12.3792C8.74401 12.3088 9.13972 12.3471 9.49881 12.4892C9.8579 12.6313 10.1642 12.8708 10.3789 13.1775C10.5936 13.4841 10.707 13.844 10.7048 14.2115C10.7063 14.4551 10.6564 14.6966 10.558 14.9219C10.4596 15.1471 10.3146 15.3516 10.1316 15.5234C9.94853 15.6952 9.73108 15.8308 9.49191 15.9224C9.25273 16.014 8.99662 16.0598 8.73852 16.057ZM15.1205 6.99938H13.9969V5.00544C13.9969 3.67493 13.437 2.39892 12.4403 1.45812C11.4437 0.51731 10.0919 -0.0112305 8.68234 -0.0112305C7.27282 -0.0112305 5.92103 0.51731 4.92435 1.45812C3.92767 2.39892 3.36774 3.67493 3.36774 5.00544V6.99938H2.36774C1.80452 6.99938 1.26438 7.21057 0.866127 7.58649C0.467876 7.96242 0.244141 8.47228 0.244141 9.00392L0.244141 19.0054C0.24711 19.5352 0.472156 20.0424 0.870086 20.416C1.26802 20.7896 1.80646 20.9994 2.36774 20.9994H15.1205C15.6818 20.9994 16.2203 20.7896 16.6182 20.416C17.0161 20.0424 17.2412 19.5352 17.2441 19.0054V9.00392C17.2441 8.47228 17.0204 7.96242 16.6222 7.58649C16.2239 7.21057 15.6838 6.99938 15.1205 6.99938Z" fill="#DFDFDF"/>
</g>
<defs>
<clipPath id="clip0">
<rect width="17" height="21" fill="white" transform="translate(0.244141)"/>
</clipPath>
</defs>
</svg>
