<svg width="34" height="32" viewBox="0 0 34 32" fill="none" xmlns="http://www.w3.org/2000/svg">
<path d="M16.6667 0C25.8717 0 33.3333 7.1632 33.3333 16C33.3333 24.8368 25.8717 32 16.6667 32C7.46167 32 0 24.8368 0 16C0 7.1632 7.46167 0 16.6667 0ZM16.6667 8C16.3646 8.00001 16.0728 8.10503 15.8451 8.29563C15.6175 8.48623 15.4694 8.74951 15.4283 9.0368L15.4167 9.2V14.8H9.58333C9.26663 14.8001 8.96177 14.9156 8.73035 15.1232C8.49893 15.3307 8.35821 15.6149 8.33662 15.9182C8.31504 16.2215 8.41419 16.5214 8.61405 16.7573C8.81392 16.9931 9.09958 17.1474 9.41333 17.1888L9.58333 17.2H15.4167V22.8C15.4168 23.104 15.5371 23.3967 15.7533 23.6189C15.9695 23.841 16.2655 23.9761 16.5815 23.9968C16.8974 24.0176 17.2098 23.9224 17.4555 23.7305C17.7012 23.5386 17.8618 23.2644 17.905 22.9632L17.9167 22.8V17.2H23.75C24.0667 17.1999 24.3716 17.0844 24.603 16.8768C24.8344 16.6693 24.9751 16.3851 24.9967 16.0818C25.0183 15.7785 24.9191 15.4786 24.7193 15.2427C24.5194 15.0069 24.2337 14.8526 23.92 14.8112L23.75 14.8H17.9167V9.2C17.9167 8.88174 17.785 8.57652 17.5505 8.35147C17.3161 8.12643 16.9982 8 16.6667 8Z" fill="#FFFFFF"/>
</svg>
