<svg width="47" height="48" viewBox="0 0 47 48" fill="none" xmlns="http://www.w3.org/2000/svg">
<path d="M23.5 0.855957C36.479 0.855957 47 11.3769 47 24.356C47 37.335 36.479 47.856 23.5 47.856C10.521 47.856 0 37.335 0 24.356C0 11.3769 10.521 0.855957 23.5 0.855957ZM23.5 12.606C23.0741 12.606 22.6626 12.7602 22.3416 13.0402C22.0206 13.3201 21.8119 13.7068 21.7539 14.1288L21.7375 14.3685V22.5935H13.5125C13.0659 22.5936 12.6361 22.7632 12.3098 23.0681C11.9835 23.373 11.7851 23.7903 11.7546 24.2358C11.7242 24.6813 11.864 25.1218 12.1458 25.4682C12.4276 25.8146 12.8304 26.0411 13.2728 26.102L13.5125 26.1185H21.7375V34.3435C21.7376 34.79 21.9073 35.2199 22.2121 35.5462C22.517 35.8725 22.9344 36.0709 23.3799 36.1013C23.8254 36.1318 24.2658 35.9919 24.6123 35.7101C24.9587 35.4283 25.1852 35.0255 25.246 34.5832L25.2625 34.3435V26.1185H33.4875C33.9341 26.1183 34.3639 25.9487 34.6902 25.6438C35.0165 25.339 35.2149 24.9216 35.2454 24.4761C35.2758 24.0306 35.136 23.5901 34.8542 23.2437C34.5724 22.8973 34.1696 22.6708 33.7272 22.6099L33.4875 22.5935H25.2625V14.3685C25.2625 13.901 25.0768 13.4527 24.7463 13.1222C24.4157 12.7916 23.9674 12.606 23.5 12.606Z" fill="#C4C4C4"/>
</svg>
