<svg width="26" height="26" viewBox="0 0 26 26" fill="none" xmlns="http://www.w3.org/2000/svg">
<path d="M22.9562 9.0149C22.985 8.7974 23 8.5799 23 8.36365C23 5.3899 20.3213 3.00365 17.3488 3.4074C16.4825 1.86615 14.8325 0.863647 13 0.863647C11.1675 0.863647 9.5175 1.86615 8.65125 3.4074C5.6725 3.00365 3 5.3899 3 8.36365C3 8.5799 3.015 8.7974 3.04375 9.0149C1.5025 9.8824 0.5 11.5324 0.5 13.3636C0.5 15.1949 1.5025 16.8449 3.04375 17.7124C3.01491 17.9283 3.0003 18.1458 3 18.3636C3 21.3374 5.6725 23.7174 8.65125 23.3199C9.5175 24.8611 11.1675 25.8636 13 25.8636C14.8325 25.8636 16.4825 24.8611 17.3488 23.3199C20.3213 23.7174 23 21.3374 23 18.3636C23 18.1474 22.985 17.9299 22.9562 17.7124C24.4975 16.8449 25.5 15.1949 25.5 13.3636C25.5 11.5324 24.4975 9.8824 22.9562 9.0149ZM11.6938 18.8836L7.11 14.2411L8.89 12.4861L11.7113 15.3436L17.12 9.97615L18.88 11.7511L11.6938 18.8836Z" fill="#081C4D"/>
</svg>
