<svg width="28" height="28" viewBox="0 0 28 28" fill="none" xmlns="http://www.w3.org/2000/svg">
<path fill-rule="evenodd" clip-rule="evenodd" d="M13.75 0.363632C6.15625 0.363632 0 6.51988 0 14.1136C0 21.7074 6.15625 27.8636 13.75 27.8636C21.3437 27.8636 27.5 21.7074 27.5 14.1136C27.5 6.51988 21.3437 0.363632 13.75 0.363632ZM19.71 11.7886C19.8197 11.6632 19.9033 11.5171 19.9557 11.3588C20.0082 11.2006 20.0284 11.0335 20.0153 10.8674C20.0022 10.7012 19.956 10.5393 19.8795 10.3913C19.8029 10.2432 19.6975 10.112 19.5694 10.0053C19.4414 9.8986 19.2933 9.81858 19.1339 9.76996C18.9744 9.72133 18.8069 9.70508 18.6411 9.72217C18.4753 9.73925 18.3146 9.78931 18.1684 9.86942C18.0223 9.94953 17.8936 10.0581 17.79 10.1886L12.415 16.6374L9.63375 13.8549C9.398 13.6272 9.08224 13.5012 8.7545 13.504C8.42675 13.5069 8.11324 13.6383 7.88148 13.8701C7.64972 14.1019 7.51825 14.4154 7.51541 14.7431C7.51256 15.0709 7.63855 15.3866 7.86625 15.6224L11.6162 19.3724C11.7391 19.4951 11.8861 19.5909 12.048 19.6537C12.2099 19.7165 12.3831 19.7448 12.5566 19.7369C12.73 19.7291 12.9 19.6851 13.0555 19.6079C13.2111 19.5308 13.3488 19.422 13.46 19.2886L19.71 11.7886Z" fill="#17A137"/>
</svg>
