<svg width="18" height="21" viewBox="0 0 18 21" fill="none" xmlns="http://www.w3.org/2000/svg">
<path fill-rule="evenodd" clip-rule="evenodd" d="M12.0194 7.42313H5.46886V5.47161C5.51782 4.68296 5.88421 3.94178 6.49307 3.39975C7.10193 2.85771 7.90722 2.5558 8.74414 2.5558C9.58107 2.5558 10.3864 2.85771 10.9952 3.39975C11.6041 3.94178 11.9705 4.68296 12.0194 5.47161V7.42313ZM8.73852 16.0565C8.34915 16.0565 7.96854 15.9473 7.64495 15.7429C7.32136 15.5385 7.06934 15.248 6.92086 14.9082C6.77237 14.5684 6.73409 14.1947 6.81087 13.8344C6.88766 13.4741 7.07605 13.1434 7.35217 12.8842C7.62828 12.6251 7.97969 12.4491 8.36185 12.3787C8.74401 12.3083 9.13972 12.3466 9.49881 12.4887C9.8579 12.6308 10.1642 12.8703 10.3789 13.177C10.5936 13.4836 10.707 13.8435 10.7048 14.211C10.7063 14.4547 10.6564 14.6961 10.558 14.9214C10.4596 15.1466 10.3146 15.3511 10.1316 15.5229C9.94853 15.6947 9.73108 15.8303 9.49191 15.9219C9.25273 16.0136 8.99662 16.0593 8.73852 16.0565ZM15.1205 6.99889H13.9969V5.00495C13.9969 3.67445 13.437 2.39844 12.4403 1.45763C11.4437 0.516821 10.0919 -0.0117187 8.68234 -0.0117188C7.27282 -0.0117187 5.92103 0.516821 4.92435 1.45763C3.92767 2.39844 3.36774 3.67445 3.36774 5.00495V6.99889H2.36774C1.80452 6.99889 1.26438 7.21008 0.866127 7.58601C0.467876 7.96193 0.244141 8.4718 0.244141 9.00343L0.244141 19.0049C0.24711 19.5347 0.472156 20.0419 0.870086 20.4155C1.26802 20.7892 1.80646 20.9989 2.36774 20.9989H15.1205C15.6818 20.9989 16.2203 20.7892 16.6182 20.4155C17.0161 20.0419 17.2412 19.5347 17.2441 19.0049V9.00343C17.2441 8.4718 17.0204 7.96193 16.6222 7.58601C16.2239 7.21008 15.6838 6.99889 15.1205 6.99889Z" fill="#DFDFDF"/>
</svg>
