<svg width="32" height="48" viewBox="0 0 32 48" fill="none" xmlns="http://www.w3.org/2000/svg">
<path d="M25 30.6887C24.0698 30.6904 23.1627 31.1202 22.4032 31.9191C21.6437 32.718 21.0691 33.8469 20.758 35.1509H9C8.07174 35.1509 7.1815 34.6024 6.52513 33.6261C5.86875 32.6498 5.5 31.3257 5.5 29.945C5.5 28.5643 5.86875 27.2402 6.52513 26.2639C7.1815 25.2876 8.07174 24.7392 9 24.7392H21C22.4587 24.7392 23.8576 23.8773 24.8891 22.3431C25.9205 20.809 26.5 18.7282 26.5 16.5585C26.5 14.3889 25.9205 12.3081 24.8891 10.774C23.8576 9.23981 22.4587 8.37793 21 8.37793H9C8.60218 8.37793 8.22064 8.61299 7.93934 9.0314C7.65804 9.4498 7.5 10.0173 7.5 10.609C7.5 11.2007 7.65804 11.7682 7.93934 12.1866C8.22064 12.605 8.60218 12.8401 9 12.8401H21C21.663 12.8401 22.2989 13.2318 22.7678 13.9292C23.2366 14.6265 23.5 15.5723 23.5 16.5585C23.5 17.5447 23.2366 18.4905 22.7678 19.1879C22.2989 19.8852 21.663 20.277 21 20.277H9C7.27609 20.277 5.62279 21.2956 4.40381 23.1087C3.18482 24.9218 2.5 27.3809 2.5 29.945C2.5 32.5091 3.18482 34.9682 4.40381 36.7813C5.62279 38.5944 7.27609 39.613 9 39.613H20.758C21.033 40.7698 21.5166 41.7919 22.1558 42.5675C22.795 43.3432 23.5653 43.8425 24.3824 44.011C25.1996 44.1795 26.0321 44.0106 26.7891 43.5229C27.546 43.0351 28.1983 42.2472 28.6745 41.2453C29.1507 40.2434 29.4326 39.066 29.4894 37.8419C29.5461 36.6178 29.3755 35.3941 28.9963 34.3044C28.617 33.2148 28.0436 32.3012 27.3388 31.6635C26.634 31.0259 25.8249 30.6886 25 30.6887ZM25 39.613C24.7033 39.613 24.4133 39.4822 24.1666 39.237C23.92 38.9918 23.7277 38.6434 23.6142 38.2357C23.5007 37.8281 23.4709 37.3795 23.5288 36.9467C23.5867 36.5139 23.7296 36.1163 23.9393 35.8043C24.1491 35.4923 24.4164 35.2798 24.7074 35.1937C24.9983 35.1076 25.2999 35.1518 25.574 35.3207C25.8481 35.4896 26.0824 35.7755 26.2472 36.1424C26.412 36.5093 26.5 36.9407 26.5 37.3819C26.4996 37.9735 26.3414 38.5406 26.0602 38.9588C25.779 39.3771 25.3977 39.6124 25 39.613Z" fill="black"/>
</svg>
