<svg width="159" height="159" viewBox="0 0 159 159" fill="none" xmlns="http://www.w3.org/2000/svg">
<path d="M78 69.6665V76.3332M74 73.6665L78 69.6665L74 73.6665ZM78 69.6665L82 73.6665L78 69.6665Z" stroke="black" stroke-width="2.66667" stroke-linecap="round" stroke-linejoin="round"/>
<path d="M78 96.3332V89.6665M74 92.3332L78 96.3332L74 92.3332ZM78 96.3332L82 92.3332L78 96.3332Z" stroke="black" stroke-width="2.66667" stroke-linecap="round" stroke-linejoin="round"/>
<path d="M91.3327 83H84.666M87.3327 79L91.3327 83L87.3327 79ZM91.3327 83L87.3327 87L91.3327 83Z" stroke="black" stroke-width="2.66667" stroke-linecap="round" stroke-linejoin="round"/>
<path d="M64.666 83H71.3327M68.666 79L64.666 83L68.666 79ZM64.666 83L68.666 87L64.666 83Z" stroke="black" stroke-width="2.66667" stroke-linecap="round" stroke-linejoin="round"/>
<path d="M77.9987 85.6663C79.4715 85.6663 80.6654 84.4724 80.6654 82.9997C80.6654 81.5269 79.4715 80.333 77.9987 80.333C76.5259 80.333 75.332 81.5269 75.332 82.9997C75.332 84.4724 76.5259 85.6663 77.9987 85.6663Z" stroke="black" stroke-width="2.66667" stroke-linecap="round" stroke-linejoin="round"/>
</svg>