<svg width="28" height="28" viewBox="0 0 28 28" fill="none" xmlns="http://www.w3.org/2000/svg">
<path d="M28 14C28 6.26875 21.7312 0 14 0C6.26875 0 0 6.26875 0 14C0 21.7313 6.26875 28 14 28C21.7312 28 28 21.7313 28 14ZM10.6562 19.5625V18.0969C10.6562 17.7781 10.8094 17.475 11.0688 17.2875L15.6125 14L11.0688 10.7125C10.8094 10.525 10.6562 10.225 10.6562 9.90312V8.4375C10.6562 8.23437 10.8875 8.11563 11.0531 8.23437L18.7406 13.7969C18.8781 13.8969 18.8781 14.1 18.7406 14.2L11.0531 19.7625C10.8875 19.8844 10.6562 19.7656 10.6562 19.5625Z" fill="black"/>
</svg>
