<svg width="32" height="32" viewBox="0 0 32 32" fill="none" xmlns="http://www.w3.org/2000/svg">
<path d="M16 2C8.26875 2 2 8.26875 2 16C2 23.7313 8.26875 30 16 30C23.7313 30 30 23.7313 30 16C30 8.26875 23.7313 2 16 2ZM21.5625 19.3438H20.0969C19.7781 19.3438 19.475 19.1906 19.2875 18.9312L16 14.3875L12.7125 18.9312C12.525 19.1906 12.225 19.3438 11.9031 19.3438H10.4375C10.2344 19.3438 10.1156 19.1125 10.2344 18.9469L15.7969 11.2594C15.8969 11.1219 16.1 11.1219 16.2 11.2594L21.7625 18.9469C21.8844 19.1125 21.7656 19.3438 21.5625 19.3438Z" fill="black"/>
</svg>
