<svg width="40" height="40" viewBox="0 0 40 40" fill="none" xmlns="http://www.w3.org/2000/svg">
<path d="M36.7001 18.5361H31.2999C31.1946 18.5361 31.0911 18.5042 30.9999 18.4436C30.9087 18.3829 30.833 18.2957 30.7803 18.1907L28.0802 12.8066C28.0277 12.7015 28 12.5824 28 12.4612C28 12.3399 28.0277 12.2208 28.0802 12.1158L30.7803 6.73163C30.833 6.62662 30.9087 6.53942 30.9999 6.47879C31.0911 6.41815 31.1946 6.38623 31.2999 6.38623H36.7001C36.8054 6.38623 36.9089 6.41815 37.0001 6.47879C37.0913 6.53942 37.167 6.62662 37.2197 6.73163L39.9198 12.1158C39.9723 12.2208 40 12.3399 40 12.4612C40 12.5824 39.9723 12.7015 39.9198 12.8066L37.2197 18.1907C37.167 18.2957 37.0913 18.3829 37.0001 18.4436C36.9089 18.5042 36.8054 18.5361 36.7001 18.5361Z" fill="#008000"/>
<path fill-rule="evenodd" clip-rule="evenodd" d="M3.64648 17.6714L5.69648 38.4598C5.69648 39.201 6.31048 39.7983 7.06448 39.7983H22.2245C22.5811 39.8043 22.9255 39.6667 23.182 39.4157C23.4385 39.1647 23.5862 38.8209 23.5925 38.4598L25.6425 17.6714H3.64648ZM15.7485 35.8861H13.6045V21.5512H15.7485V35.8861ZM19.7485 35.8861H17.6045L19.6045 21.5512H21.7485L19.7485 35.8861ZM11.7485 35.8861H9.60448L7.60448 21.5512H9.74848L11.7485 35.8861Z" fill="black"/>
<path fill-rule="evenodd" clip-rule="evenodd" d="M24.1831 4.57044L18.3194 6.83561L17.3242 4.19444C17.0447 3.4528 15.9666 3.18221 15.2192 3.47095L9.4358 5.70508C8.68836 5.99382 7.81169 6.82014 8.08974 7.558L9.08501 10.1992L3.27525 12.6472C3.0982 12.7128 2.93565 12.813 2.7969 12.9422C2.65815 13.0714 2.54591 13.227 2.46662 13.4002C2.38733 13.5733 2.34253 13.7606 2.3348 13.9513C2.32706 14.142 2.35653 14.3324 2.42153 14.5115L3.24498 16.6967L26.8661 7.5718L26.0427 5.3866C25.9738 5.20913 25.871 5.04717 25.7402 4.91002C25.6094 4.77287 25.4531 4.66323 25.2804 4.5874C25.1076 4.51156 24.9217 4.47103 24.7334 4.46812C24.5451 4.46521 24.3581 4.49998 24.1831 4.57044ZM10.3896 8.45764C10.1671 7.86735 10.6426 7.13532 11.4499 6.82348L14.3724 5.69451C15.1796 5.38267 16.0147 5.61058 16.2365 6.19897L16.7106 7.45712L10.8618 9.71651L10.3877 8.45836L10.3896 8.45764Z" fill="black"/>
<path d="M36.7001 18.5361H31.2999C31.1946 18.5361 31.0911 18.5042 30.9999 18.4436C30.9087 18.3829 30.833 18.2957 30.7803 18.1907L28.0802 12.8066C28.0277 12.7015 28 12.5824 28 12.4612C28 12.3399 28.0277 12.2208 28.0802 12.1158L30.7803 6.73163C30.833 6.62662 30.9087 6.53942 30.9999 6.47879C31.0911 6.41815 31.1946 6.38623 31.2999 6.38623H36.7001C36.8054 6.38623 36.9089 6.41815 37.0001 6.47879C37.0913 6.53942 37.167 6.62662 37.2197 6.73163L39.9198 12.1158C39.9723 12.2208 40 12.3399 40 12.4612C40 12.5824 39.9723 12.7015 39.9198 12.8066L37.2197 18.1907C37.167 18.2957 37.0913 18.3829 37.0001 18.4436C36.9089 18.5042 36.8054 18.5361 36.7001 18.5361Z" fill="#008000"/>
<path d="M36.7001 18.1499H31.2999C31.1946 18.1499 31.0911 18.118 30.9999 18.0573C30.9087 17.9967 30.833 17.9095 30.7803 17.8045L28.0802 12.4203C28.0277 12.3153 28 12.1962 28 12.0749C28 11.9537 28.0277 11.8346 28.0802 11.7295L30.7803 6.3454C30.833 6.24039 30.9087 6.15319 30.9999 6.09255C31.0911 6.03192 31.1946 6 31.2999 6H36.7001C36.8054 6 36.9089 6.03192 37.0001 6.09255C37.0913 6.15319 37.167 6.24039 37.2197 6.3454L39.9198 11.7295C39.9723 11.8346 40 11.9537 40 12.0749C40 12.1962 39.9723 12.3153 39.9198 12.4203L37.2197 17.8045C37.167 17.9095 37.0913 17.9967 37.0001 18.0573C36.9089 18.118 36.8054 18.1499 36.7001 18.1499Z" fill="#008000"/>
<path fill-rule="evenodd" clip-rule="evenodd" d="M3.64844 17.6714L5.69844 38.4598C5.69844 39.201 6.31244 39.7983 7.06644 39.7983H22.2264C22.5831 39.8043 22.9275 39.6667 23.184 39.4157C23.4405 39.1647 23.5881 38.8209 23.5944 38.4598L25.6444 17.6714H3.64844ZM15.7504 35.8861H13.6064V21.5512H15.7504V35.8861ZM19.7504 35.8861H17.6064L19.6064 21.5512H21.7504L19.7504 35.8861ZM11.7504 35.8861H9.60644L7.60644 21.5512H9.75044L11.7504 35.8861Z" fill="black"/>
<path fill-rule="evenodd" clip-rule="evenodd" d="M24.1851 4.57044L18.3214 6.83561L17.3261 4.19444C17.0466 3.4528 15.9686 3.18221 15.2211 3.47095L9.43776 5.70508C8.69031 5.99382 7.81364 6.82014 8.09169 7.558L9.08697 10.1992L3.2772 12.6472C3.10015 12.7128 2.9376 12.813 2.79885 12.9422C2.6601 13.0714 2.54787 13.227 2.46857 13.4002C2.38928 13.5733 2.34449 13.7606 2.33675 13.9513C2.32901 14.142 2.35849 14.3324 2.42348 14.5115L3.24694 16.6967L26.8681 7.5718L26.0446 5.3866C25.9758 5.20913 25.873 5.04717 25.7422 4.91002C25.6114 4.77287 25.4551 4.66323 25.2823 4.5874C25.1095 4.51156 24.9237 4.47103 24.7354 4.46812C24.5471 4.46521 24.3601 4.49998 24.1851 4.57044ZM10.3915 8.45764C10.1691 7.86735 10.6446 7.13532 11.4518 6.82348L14.3743 5.69451C15.1816 5.38267 16.0167 5.61058 16.2384 6.19897L16.7125 7.45712L10.8638 9.71651L10.3897 8.45836L10.3915 8.45764Z" fill="black"/>
</svg>
