<svg width="32" height="32" viewBox="0 0 32 32" fill="none" xmlns="http://www.w3.org/2000/svg">
<path d="M5.33203 8H26.6654L24.5587 26.96C24.4865 27.6125 24.1761 28.2154 23.687 28.6533C23.1979 29.0913 22.5645 29.3334 21.908 29.3333H10.0894C9.43288 29.3334 8.79945 29.0913 8.31036 28.6533C7.82128 28.2154 7.51091 27.6125 7.4387 26.96L5.33203 8Z" stroke="white" stroke-width="2.66667" stroke-linecap="round" stroke-linejoin="round"/>
<path d="M9.79333 4.19584C10.009 3.73846 10.3503 3.35183 10.7773 3.08105C11.2044 2.81027 11.6997 2.6665 12.2053 2.6665H19.7947C20.3006 2.66625 20.7961 2.8099 21.2234 3.08069C21.6508 3.35149 21.9922 3.73826 22.208 4.19584L24 7.99984H8L9.79333 4.19584Z" stroke="white" stroke-width="2.66667" stroke-linecap="round" stroke-linejoin="round"/>
<path d="M2.66602 8H29.3327" stroke="white" stroke-width="2.66667" stroke-linecap="round" stroke-linejoin="round"/>
<path d="M13.332 14.6665V21.3332" stroke="white" stroke-width="2.66667" stroke-linecap="round" stroke-linejoin="round"/>
<path d="M18.666 14.6665V21.3332" stroke="white" stroke-width="2.66667" stroke-linecap="round" stroke-linejoin="round"/>
</svg>
