<svg width="39" height="41" viewBox="0 0 39 41" fill="none" xmlns="http://www.w3.org/2000/svg">
<path fill-rule="evenodd" clip-rule="evenodd" d="M3.23047 17.9185L5.28047 38.7069C5.28047 39.448 5.89447 40.0454 6.64847 40.0454H21.8085C22.1651 40.0514 22.5095 39.9138 22.766 39.6628C23.0225 39.4118 23.1702 39.068 23.1765 38.7069L25.2265 17.9185H3.23047ZM15.3325 36.1332H13.1885V21.7983H15.3325V36.1332ZM19.3325 36.1332H17.1885L19.1885 21.7983H21.3325L19.3325 36.1332ZM11.3325 36.1332H9.18847L7.18847 21.7983H9.33247L11.3325 36.1332Z" fill="black"/>
<path fill-rule="evenodd" clip-rule="evenodd" d="M23.7671 4.81751L17.9034 7.08268L16.9082 4.44151C16.6287 3.69987 15.5506 3.42928 14.8031 3.71802L9.01979 5.95215C8.27234 6.24089 7.39568 7.06721 7.67373 7.80507L8.669 10.4462L2.85923 12.8943C2.68218 12.9598 2.51964 13.0601 2.38088 13.1892C2.24213 13.3184 2.1299 13.4741 2.05061 13.6472C1.97131 13.8204 1.92652 14.0077 1.91878 14.1984C1.91104 14.3891 1.94052 14.5794 2.00552 14.7586L2.82897 16.9438L26.4501 7.81887L25.6266 5.63367C25.5578 5.4562 25.455 5.29424 25.3242 5.15709C25.1934 5.01994 25.0371 4.9103 24.8643 4.83446C24.6916 4.75863 24.5057 4.71809 24.3174 4.71518C24.1291 4.71228 23.9421 4.74705 23.7671 4.81751ZM9.97355 8.70471C9.75112 8.11442 10.2266 7.38239 11.0339 7.07055L13.9564 5.94158C14.7636 5.62974 15.5987 5.85764 15.8204 6.44604L16.2945 7.70419L10.4458 9.96358L9.97169 8.70543L9.97355 8.70471Z" fill="black"/>
<path d="M35.4091 8.86521H27.3214C27.1439 8.86521 27 9.0848 27 9.35564V11.6443C27 11.9152 27.1439 12.1348 27.3214 12.1348H35.4091V14.0172C35.4091 14.891 36.1016 15.3287 36.5066 14.7108L38.8117 11.1936C39.0628 10.8105 39.0628 10.1895 38.8117 9.80643L36.5066 6.28925C36.1016 5.67135 35.4091 6.10898 35.4091 6.98284V8.86521Z" fill="black"/>
</svg>
