<svg width="18" height="15" viewBox="0 0 18 15" fill="none" xmlns="http://www.w3.org/2000/svg">
<path d="M7.24714 13.9379C7.33124 14.0601 7.44376 14.1599 7.57503 14.2289C7.70629 14.2979 7.85236 14.334 8.00064 14.334C8.14893 14.334 8.295 14.2979 8.42626 14.2289C8.55752 14.1599 8.67005 14.0601 8.75414 13.9379L17.0041 2.02126C17.0996 1.88381 17.1556 1.72282 17.1661 1.55578C17.1765 1.38874 17.1409 1.22204 17.0633 1.07379C16.9856 0.925534 16.8688 0.801402 16.7255 0.714878C16.5822 0.628354 16.418 0.582745 16.2506 0.583009H-0.249356C-0.416333 0.583699 -0.579963 0.629893 -0.722649 0.716625C-0.865335 0.803357 -0.981679 0.927344 -1.05917 1.07525C-1.13666 1.22316 -1.17236 1.3894 -1.16244 1.55608C-1.15252 1.72276 -1.09735 1.88359 -1.00286 2.02126L7.24714 13.9379Z" fill="#081C4D"/>
</svg>
