<svg width="61" height="62" viewBox="0 0 61 62" fill="none" xmlns="http://www.w3.org/2000/svg">
<g clip-path="url(#clip0)">
<path d="M30.7928 46.6502C32.0171 46.6473 33.0072 45.6525 33.0043 44.4283C33.0013 43.204 32.0066 42.2139 30.7823 42.2168C29.5581 42.2198 28.568 43.2145 28.5709 44.4388C28.5738 45.663 29.5686 46.6531 30.7928 46.6502Z" fill="white"/>
<path d="M30.7739 38.6836C30.3319 38.6847 29.9075 38.5101 29.5942 38.1983C29.2809 37.8865 29.1043 37.4629 29.1033 37.0209L29.0558 17.021C29.0548 16.5789 29.2294 16.1546 29.5412 15.8413C29.853 15.528 30.2765 15.3514 30.7185 15.3504C31.1606 15.3493 31.5849 15.5239 31.8982 15.8357C32.2115 16.1475 32.3881 16.571 32.3892 17.0131L32.4366 37.013C32.4377 37.455 32.2631 37.8794 31.9512 38.1927C31.6394 38.506 31.2159 38.6826 30.7739 38.6836Z" fill="white"/>
<path d="M25.7945 3.81366C26.2557 2.96949 26.9353 2.26476 27.7622 1.77318C28.589 1.28159 29.5328 1.02121 30.4947 1.01927C31.4566 1.01733 32.4014 1.2739 33.2303 1.76214C34.0591 2.25039 34.7415 2.95237 35.2061 3.79467L58.4571 46.3396C58.9031 47.1559 59.1292 48.0741 59.1133 49.0041C59.0974 49.9341 58.8401 50.8441 58.3665 51.6447C57.893 52.4453 57.2195 53.109 56.4121 53.5709C55.6047 54.0327 54.6911 54.2768 53.761 54.2791L7.51442 54.3888C6.57385 54.4121 5.6437 54.1877 4.81721 53.7381C3.99072 53.2885 3.29695 52.6296 2.80545 51.8273C2.31396 51.025 2.04202 50.1077 2.01689 49.1671C1.99176 48.2266 2.21433 47.296 2.66229 46.4686L25.7945 3.81366ZM5.59606 48.0567C5.42509 48.3728 5.34095 48.7285 5.35221 49.0877C5.36347 49.4469 5.46972 49.7967 5.66015 50.1015C5.85057 50.4063 6.11837 50.6551 6.43627 50.8227C6.75416 50.9903 7.11079 51.0707 7.46985 51.0556L53.753 50.9458C54.1055 50.9448 54.4516 50.8521 54.7575 50.677C55.0634 50.5018 55.3184 50.2502 55.4977 49.9468C55.677 49.6433 55.7743 49.2985 55.7801 48.9461C55.786 48.5936 55.7001 48.2458 55.5309 47.9366L32.2849 5.39993C32.1088 5.08165 31.8504 4.81646 31.5368 4.63202C31.2232 4.44759 30.8659 4.35067 30.5021 4.35136C30.1383 4.35205 29.7814 4.45034 29.4685 4.63596C29.1556 4.82159 28.8983 5.08776 28.7233 5.40672L5.5944 48.0567L5.59606 48.0567Z" fill="white"/>
</g>
<defs>
<clipPath id="clip0">
<rect width="60" height="60" fill="white" transform="translate(0.68457 1.07153) rotate(-0.135913)"/>
</clipPath>
</defs>
</svg>