<svg width="30" height="30" viewBox="0 0 30 30" fill="none" xmlns="http://www.w3.org/2000/svg">
<path d="M2.82007 28.1133C1.27319 28.1133 0.57007 26.9883 1.27319 25.6289L13.7888 1.01953C14.4919 -0.339844 15.6169 -0.339844 16.3201 1.01953L28.8357 25.6289C29.5388 26.9883 28.8357 28.1133 27.2888 28.1133H2.82007Z" fill="#FFFF00"/>
<path d="M13.009 10.1133L14.3215 18.7852C14.4622 19.6289 15.5403 19.6289 15.6809 18.7852L16.9465 10.1133C17.1809 6.73828 12.7747 6.73828 13.009 10.1133Z" fill="white"/>
<path d="M14.9778 24.2695C16.0651 24.2695 16.9465 23.3881 16.9465 22.3008C16.9465 21.2135 16.0651 20.332 14.9778 20.332C13.8905 20.332 13.009 21.2135 13.009 22.3008C13.009 23.3881 13.8905 24.2695 14.9778 24.2695Z" fill="white"/>
</svg>