<svg width="32" height="32" viewBox="0 0 32 32" fill="none" xmlns="http://www.w3.org/2000/svg">
<path d="M13 6H11V11H6V13H11V18H13V13H18V11H13V6Z" fill="black"/>
<path d="M29.975 25.025L24.9072 19.9573L21.0093 18.3468C22.3071 16.5012 23.0025 14.2993 23 12.043C23 5.97753 18.0654 1.04297 12 1.04297C5.93456 1.04297 1 5.97753 1 12.043C1 18.1084 5.93456 23.043 12 23.043C14.276 23.0456 16.4962 22.3382 18.3512 21.0193L19.9574 24.9068L25.025 29.975C25.6814 30.6314 26.5717 31.0002 27.5 31.0002C28.4283 31.0002 29.3186 30.6314 29.975 29.975C30.6314 29.3186 31.0002 28.4283 31.0002 27.5C31.0002 26.5717 30.6314 25.6814 29.975 25.025ZM3 12.043C3 7.08047 7.0375 3.04297 12 3.04297C16.9625 3.04297 21 7.08047 21 12.043C21 17.0055 16.9625 21.043 12 21.043C7.0375 21.043 3 17.0055 3 12.043ZM28.5607 28.5607C28.2791 28.8416 27.8977 28.9993 27.5 28.9993C27.1023 28.9993 26.7209 28.8416 26.4393 28.5607L21.6536 23.775L20.1602 20.1603L23.775 21.6536L28.5608 26.4393C28.8417 26.7209 28.9994 27.1024 28.9994 27.5001C28.9993 27.8977 28.8416 28.2792 28.5607 28.5607Z" fill="black"/>
</svg>
