<svg width="36" height="34" viewBox="0 0 36 34" fill="none" xmlns="http://www.w3.org/2000/svg">
<path d="M8.85352 10.625H17.7077V12.75H8.85352V10.625Z" fill="#2EC4B6"/>
<path d="M8.85352 6.375H22.1348V8.5H8.85352V6.375Z" fill="#2EC4B6"/>
<path d="M8.85352 2.125H22.1348V4.25H8.85352V2.125Z" fill="#2EC4B6"/>
<path d="M5.21335 29.75L11.4456 19.1292L19.6733 26.0249C19.922 26.2373 20.2175 26.3932 20.5376 26.4809C20.8578 26.5685 21.1944 26.5858 21.5224 26.5312C21.8505 26.4767 22.1615 26.3518 22.4323 26.1659C22.7031 25.98 22.9268 25.7379 23.0866 25.4575L30.8008 14.4043L28.9624 13.2207L21.215 24.3217L21.1376 24.4311L12.9087 17.5355C12.6601 17.3242 12.3652 17.1693 12.0458 17.0821C11.7265 16.9949 11.3908 16.9777 11.0635 17.0318C10.7363 17.0859 10.4259 17.2098 10.1553 17.3944C9.88463 17.5791 9.66065 17.8197 9.49987 18.0986L4.42643 26.7569V2.125H2.21289V29.75C2.21348 30.3134 2.44688 30.8536 2.86187 31.252C3.27686 31.6504 3.83954 31.8744 4.42643 31.875H33.2025V29.75H5.21335Z" fill="#2EC4B6"/>
</svg>
